<?xml version="1.0" encoding="UTF-8"?>
<svg width="31px" height="31px" viewBox="0 0 31 31" version="1.1" xmlns="http://www.w3.org/2000/svg" xmlns:xlink="http://www.w3.org/1999/xlink">
    <!-- Generator: Sketch 50 (54983) - http://www.bohemiancoding.com/sketch -->
    <title>Phase but Add</title>
    <desc>Created with Sketch.</desc>
    <defs></defs>
    <g id="Symbols" stroke="none" stroke-width="1" fill="none" fill-rule="evenodd">
        <g id="Buttons-/-Phase-but-Add">
            <g id="Phase-but-Add">
                <circle id="Oval-3" fill="#513FA0" cx="15.5" cy="15.5" r="15.5"></circle>
                <path d="M16.9604459,14.5730383 L23.1258107,14.5730383 C23.6780954,14.5730383 24.1258107,15.0207535 24.1258107,15.5730383 C24.1258107,16.125323 23.6780954,16.5730383 23.1258107,16.5730383 L16.9604459,16.5730383 L16.9604459,22.7384031 C16.9604459,23.2906878 16.5127306,23.7384031 15.9604459,23.7384031 C15.4081611,23.7384031 14.9604459,23.2906878 14.9604459,22.7384031 L14.9604459,16.5730383 L8.79508109,16.5730383 C8.24279634,16.5730383 7.79508109,16.125323 7.79508109,15.5730383 C7.79508109,15.0207535 8.24279634,14.5730383 8.79508109,14.5730383 L14.9604459,14.5730383 L14.9604459,8.40767346 C14.9604459,7.85538871 15.4081611,7.40767346 15.9604459,7.40767346 C16.5127306,7.40767346 16.9604459,7.85538871 16.9604459,8.40767346 L16.9604459,14.5730383 Z" id="Combined-Shape" fill="#FFFFFF" fill-rule="nonzero"></path>
            </g>
        </g>
    </g>
</svg>