<?xml version="1.0" encoding="utf-8"?>
<!-- Generator: Adobe Illustrator 22.1.0, SVG Export Plug-In . SVG Version: 6.00 Build 0)  -->
<svg version="1.1" id="Layer_1" xmlns="http://www.w3.org/2000/svg" xmlns:xlink="http://www.w3.org/1999/xlink" x="0px" y="0px"
	 viewBox="0 0 22 22" style="enable-background:new 0 0 22 22;" xml:space="preserve">
<g transform="rotate(0 50 50)">
	<path d="M11,0L11,0c0.6,0,1,0.4,1,0.9v4.2C12,5.6,11.6,6,11,6h0c-0.5,0-1-0.4-1-0.9V0.9C10,0.4,10.4,0,11,0z	">
<animate  accumulate="none" additive="replace" attributeName="opacity" begin="-0.9166666666666666s" calcMode="linear" dur="1s" fill="remove" keyTimes="0;1" repeatCount="indefinite" restart="always" values="1;0">
			</animate>
	</path>
</g>
<g transform="rotate(30 50 50)">
	<path d="M-3.3,24.7L-3.3,24.7c0.6,0,1,0.4,1,0.9l0,4.2c0,0.5-0.4,0.9-1,0.9h0c-0.5,0-1-0.4-1-0.9l0-4.2
		C-4.3,25.1-3.8,24.7-3.3,24.7z	">
<animate  accumulate="none" additive="replace" attributeName="opacity" begin="-0.8333333333333334s" calcMode="linear" dur="1s" fill="remove" keyTimes="0;1" repeatCount="indefinite" restart="always" values="1;0">
			</animate>
	</path>
</g>
<g transform="rotate(60 50 50)">
	<path d="M-3.3,53.3L-3.3,53.3c0.6,0,1,0.4,1,0.9l0,4.2c0,0.5-0.4,0.9-1,0.9h0c-0.5,0-1-0.4-1-0.9l0-4.2
		C-4.3,53.7-3.8,53.3-3.3,53.3z	">
<animate  accumulate="none" additive="replace" attributeName="opacity" begin="-0.75s" calcMode="linear" dur="1s" fill="remove" keyTimes="0;1" repeatCount="indefinite" restart="always" values="1;0">
			</animate>
	</path>
</g>
<g transform="rotate(90 50 50)">
	<path d="M11,78L11,78c0.6,0,1,0.4,1,0.9v4.2c0,0.5-0.4,0.9-1,0.9h0c-0.5,0-1-0.4-1-0.9v-4.2C10,78.4,10.4,78,11,78z	">
<animate  accumulate="none" additive="replace" attributeName="opacity" begin="-0.6666666666666666s" calcMode="linear" dur="1s" fill="remove" keyTimes="0;1" repeatCount="indefinite" restart="always" values="1;0">
			</animate>
	</path>
</g>
<g transform="rotate(120 50 50)">
	<path d="M35.7,92.3L35.7,92.3c0.6,0,1,0.4,1,0.9v4.2c0,0.5-0.4,0.9-1,0.9h0c-0.5,0-1-0.4-1-0.9v-4.2C34.7,92.7,35.2,92.3,35.7,92.3
		z	">
<animate  accumulate="none" additive="replace" attributeName="opacity" begin="-0.5833333333333334s" calcMode="linear" dur="1s" fill="remove" keyTimes="0;1" repeatCount="indefinite" restart="always" values="1;0">
			</animate>
	</path>
</g>
<g transform="rotate(150 50 50)">
	<path d="M64.3,92.3L64.3,92.3c0.6,0,1,0.4,1,0.9v4.2c0,0.5-0.4,0.9-1,0.9h0c-0.5,0-1-0.4-1-0.9v-4.2C63.3,92.7,63.7,92.3,64.3,92.3
		z	">
<animate  accumulate="none" additive="replace" attributeName="opacity" begin="-0.5s" calcMode="linear" dur="1s" fill="remove" keyTimes="0;1" repeatCount="indefinite" restart="always" values="1;0">
			</animate>
	</path>
</g>
<g transform="rotate(180 50 50)">
	<path d="M89,78L89,78c0.6,0,1,0.4,1,0.9v4.2c0,0.5-0.4,0.9-1,0.9h0c-0.5,0-1-0.4-1-0.9v-4.2C88,78.4,88.4,78,89,78z	">
<animate  accumulate="none" additive="replace" attributeName="opacity" begin="-0.4166666666666667s" calcMode="linear" dur="1s" fill="remove" keyTimes="0;1" repeatCount="indefinite" restart="always" values="1;0">
			</animate>
	</path>
</g>
<g transform="rotate(210 50 50)">
	<path d="M103.3,53.3L103.3,53.3c0.6,0,1,0.4,1,0.9v4.2c0,0.5-0.4,0.9-1,0.9h0c-0.5,0-1-0.4-1-0.9v-4.2
		C102.3,53.7,102.7,53.3,103.3,53.3z	">
<animate  accumulate="none" additive="replace" attributeName="opacity" begin="-0.3333333333333333s" calcMode="linear" dur="1s" fill="remove" keyTimes="0;1" repeatCount="indefinite" restart="always" values="1;0">
			</animate>
	</path>
</g>
<g transform="rotate(240 50 50)">
	<path d="M103.3,24.7L103.3,24.7c0.6,0,1,0.4,1,0.9v4.2c0,0.5-0.4,0.9-1,0.9h0c-0.5,0-1-0.4-1-0.9l0-4.2
		C102.3,25.1,102.7,24.7,103.3,24.7z	">
<animate  accumulate="none" additive="replace" attributeName="opacity" begin="-0.25s" calcMode="linear" dur="1s" fill="remove" keyTimes="0;1" repeatCount="indefinite" restart="always" values="1;0">
			</animate>
	</path>
</g>
<g transform="rotate(270 50 50)">
	<path d="M89,0L89,0c0.6,0,1,0.4,1,0.9v4.2C90,5.6,89.6,6,89,6h0c-0.5,0-1-0.4-1-0.9V0.9C88,0.4,88.4,0,89,0z	">
<animate  accumulate="none" additive="replace" attributeName="opacity" begin="-0.16666666666666666s" calcMode="linear" dur="1s" fill="remove" keyTimes="0;1" repeatCount="indefinite" restart="always" values="1;0">
			</animate>
	</path>
</g>
<g transform="rotate(300 50 50)">
	<path d="M64.3-14.3L64.3-14.3c0.6,0,1,0.4,1,0.9v4.2c0,0.5-0.4,0.9-1,0.9h0c-0.5,0-1-0.4-1-0.9v-4.2C63.3-13.9,63.7-14.3,64.3-14.3
		z	">
<animate  accumulate="none" additive="replace" attributeName="opacity" begin="-0.08333333333333333s" calcMode="linear" dur="1s" fill="remove" keyTimes="0;1" repeatCount="indefinite" restart="always" values="1;0">
			</animate>
	</path>
</g>
<g transform="rotate(330 50 50)">
	<path d="M35.7-14.3L35.7-14.3c0.6,0,1,0.4,1,0.9v4.2c0,0.5-0.4,0.9-1,0.9h0c-0.5,0-1-0.4-1-0.9l0-4.2
		C34.7-13.9,35.2-14.3,35.7-14.3z	">
<animate  accumulate="none" additive="replace" attributeName="opacity" begin="0s" calcMode="linear" dur="1s" fill="remove" keyTimes="0;1" repeatCount="indefinite" restart="always" values="1;0">
			</animate>
	</path>
</g>
</svg>
